<svg width="25" height="24" viewBox="0 0 25 24" fill="none" xmlns="http://www.w3.org/2000/svg">
<g clip-path="url(#clip0_5795_20893)">
<path d="M17.1354 0H7.43489C3.49251 0 0.285156 3.20735 0.285156 7.14973V16.8503C0.285156 20.7926 3.49251 24 7.43489 24H17.1354C21.0778 24 24.2852 20.7926 24.2852 16.8503V7.14973C24.2851 3.20735 21.0778 0 17.1354 0ZM21.8708 16.8503C21.8708 19.4655 19.7507 21.5856 17.1354 21.5856H7.43489C4.81966 21.5856 2.69956 19.4655 2.69956 16.8503V7.14973C2.69956 4.53446 4.81966 2.4144 7.43489 2.4144H17.1354C19.7507 2.4144 21.8708 4.53446 21.8708 7.14973V16.8503Z" fill="#00095B"/>
<path d="M12.2854 5.79297C8.86269 5.79297 6.07812 8.57754 6.07812 12.0002C6.07812 15.4228 8.86269 18.2074 12.2854 18.2074C15.7081 18.2074 18.4926 15.4229 18.4926 12.0002C18.4926 8.57749 15.7081 5.79297 12.2854 5.79297ZM12.2854 15.7931C10.1906 15.7931 8.49252 14.095 8.49252 12.0002C8.49252 9.90547 10.1907 8.20737 12.2854 8.20737C14.3801 8.20737 16.0782 9.90547 16.0782 12.0002C16.0782 14.0949 14.3801 15.7931 12.2854 15.7931Z" fill="#00095B"/>
<path d="M18.5049 7.32673C19.3264 7.32673 19.9923 6.66083 19.9923 5.83939C19.9923 5.01796 19.3264 4.35205 18.5049 4.35205C17.6835 4.35205 17.0176 5.01796 17.0176 5.83939C17.0176 6.66083 17.6835 7.32673 18.5049 7.32673Z" fill="#00095B"/>
</g>
<defs>
<clipPath id="clip0_5795_20893">
<rect width="24" height="24" fill="white" transform="translate(0.285156)"/>
</clipPath>
</defs>
</svg>
