<svg width="24" height="24" viewBox="0 0 24 24" fill="none" xmlns="http://www.w3.org/2000/svg">
<path d="M22.3741 7.22047C22.0319 6.0931 21.5419 5.03632 20.8606 4.07213C19.7629 2.51868 18.3214 1.40921 16.5424 0.739649C15.5485 0.365736 14.5173 0.151414 13.4606 0.059854C11.6017 -0.101783 9.77821 0.0511584 8.0089 0.675711C6.69534 1.13914 5.54496 1.86139 4.57565 2.86548C3.31785 4.16829 2.54087 5.73402 2.06721 7.46446C1.75877 8.58978 1.59304 9.73863 1.53064 10.9018C1.43703 12.6496 1.55212 14.3821 1.95621 16.0905C2.20327 17.135 2.55928 18.1381 3.07591 19.0803C4.27897 21.2752 6.07642 22.7448 8.46977 23.4793C9.53831 23.8072 10.6365 23.9622 11.7526 23.9934C13.0534 24.0292 14.3393 23.9197 15.5982 23.5734C16.925 23.2082 18.102 22.5647 19.1214 21.6373C20.8427 20.0716 21.6795 18.156 21.4058 15.8107C21.3035 14.9366 21.0161 14.1223 20.5281 13.3842C19.8099 12.2987 18.8099 11.5591 17.636 11.0363C17.5342 10.9913 17.5005 10.934 17.4933 10.8271C17.4396 9.99745 17.2785 9.19029 16.9383 8.42712C16.4089 7.23888 15.5537 6.38569 14.3209 5.94272C13.169 5.52891 11.9884 5.48185 10.7987 5.74988C9.55161 6.0307 8.55468 6.69822 7.80532 7.73658C7.74087 7.82558 7.75775 7.86599 7.84419 7.92379C8.35417 8.26292 8.86209 8.60563 9.36644 8.95295C9.45954 9.01689 9.50455 9.00154 9.56849 8.91459C9.9603 8.38057 10.482 8.03326 11.1184 7.85525C11.8145 7.66088 12.5163 7.66343 13.2161 7.82303C13.8575 7.96932 14.3905 8.29157 14.7639 8.84707C15.0386 9.25627 15.1961 9.71254 15.2877 10.1934C15.3163 10.3453 15.3148 10.3504 15.1634 10.3284C14.5132 10.2327 13.8595 10.1908 13.1762 10.1831C12.5772 10.1944 11.9516 10.2123 11.3337 10.3289C10.5219 10.4818 9.75826 10.7565 9.08 11.2384C7.5644 12.3151 7.03908 14.1939 7.80071 15.8834C8.29074 16.9698 9.17053 17.6297 10.2728 18.0102C11.3168 18.3703 12.3833 18.401 13.4595 18.1719C14.7705 17.8921 15.7889 17.1913 16.4979 16.0486C16.9956 15.246 17.2514 14.3596 17.392 13.4348C17.4048 13.3499 17.4181 13.2977 17.5148 13.3591C18.0882 13.7228 18.5869 14.1673 18.8979 14.778C19.546 16.0501 19.5025 17.3335 18.8682 18.5934C18.348 19.6271 17.5025 20.3529 16.5153 20.9212C15.5762 21.4619 14.545 21.7095 13.4774 21.8154C12.0324 21.9591 10.6022 21.8829 9.2002 21.4778C8.25749 21.2056 7.39304 20.778 6.63345 20.1519C5.38281 19.1217 4.64266 17.7688 4.18179 16.2435C3.86721 15.2031 3.70967 14.1345 3.64573 13.0522C3.56184 11.6307 3.63703 10.2179 3.91836 8.81893C4.09943 7.91817 4.37156 7.04758 4.78025 6.22303C5.4268 4.91868 6.35365 3.87571 7.63601 3.16574C8.77514 2.53505 10.0109 2.24809 11.2969 2.15193C11.9859 2.10026 12.6754 2.11049 13.3639 2.18006C14.2237 2.2665 15.0631 2.44246 15.8687 2.75653C17.6754 3.46037 18.9756 4.70691 19.8084 6.45167C20.0488 6.95499 20.2324 7.48185 20.4406 7.99796C20.4733 8.07878 20.5092 8.09822 20.5925 8.07622C21.1808 7.92072 21.7705 7.77187 22.3542 7.60154C22.4529 7.5729 22.4872 7.52737 22.4401 7.42712C22.4099 7.36216 22.3966 7.28952 22.3756 7.22047H22.3741ZM15.3542 12.7131C15.2882 13.3683 15.1623 14.0087 14.8805 14.6102C14.436 15.5586 13.6795 16.0532 12.6483 16.1627C12.0682 16.224 11.4999 16.1939 10.947 16.0031C10.4467 15.8307 10.0161 15.5601 9.75928 15.0767C9.38076 14.3642 9.59662 13.5013 10.2769 12.9862C10.6723 12.6865 11.1281 12.5304 11.6079 12.4322C12.1281 12.3253 12.656 12.3197 13.0979 12.31C13.8575 12.3136 14.5271 12.3657 15.19 12.4916C15.3731 12.5264 15.3726 12.5279 15.3542 12.7136V12.7131Z" fill="#00095B"/>
</svg>
