<?xml version="1.0" encoding="UTF-8"?><svg id="Layer_2" xmlns="http://www.w3.org/2000/svg" viewBox="0 0 100 100"><defs><style>.cls-1{fill:#fff;}.cls-2{fill:#00095b;}</style></defs><g id="Layer_1-2"><g><g><circle class="cls-2" cx="50" cy="50" r="49.5"/><path class="cls-2" d="m50,1c27.02,0,49,21.98,49,49s-21.98,49-49,49S1,77.02,1,50,22.98,1,50,1m0-1C22.39,0,0,22.39,0,50s22.39,50,50,50,50-22.39,50-50S77.61,0,50,0h0Z"/></g><g><path class="cls-1" d="m32.91,52.8c-2.17-2.17-3.37-5.06-3.37-8.13s1.2-5.96,3.37-8.13c2.17-2.17,5.06-3.37,8.13-3.37s5.96,1.2,8.13,3.37l.82.83.82-.83c2.17-2.17,5.06-3.37,8.13-3.37s5.96,1.2,8.13,3.37,3.37,5.06,3.37,8.13-1.2,5.96-3.37,8.13l-17.09,17.09-17.09-17.09Z"/><path class="cls-2" d="m58.96,33.67c2.94,0,5.7,1.14,7.78,3.22,2.08,2.08,3.22,4.84,3.22,7.78s-1.14,5.7-3.22,7.78l-.47.47-16.26,16.26-16.26-16.26-.47-.47c-4.29-4.29-4.29-11.27,0-15.56,2.08-2.08,4.84-3.22,7.78-3.22s5.7,1.14,7.78,3.22l.47.47.71.71.71-.71.47-.47c2.08-2.08,4.84-3.22,7.78-3.22m0-1c-3.07,0-6.14,1.17-8.49,3.51l-.47.47-.47-.47c-2.34-2.34-5.41-3.51-8.49-3.51s-6.14,1.17-8.49,3.51h0c-4.69,4.69-4.69,12.28,0,16.97l.47.47,16.97,16.97,16.97-16.97.47-.47c4.69-4.69,4.69-12.28,0-16.97h0c-2.34-2.34-5.41-3.51-8.49-3.51h0Z"/></g></g></g></svg>