<svg width="24" height="24" viewBox="0 0 24 24" fill="none" xmlns="http://www.w3.org/2000/svg">
<g id="GeneralSystems/GlobalKeyboard/24">
<path id="GlobalKeyboard" fill-rule="evenodd" clip-rule="evenodd" d="M14.7201 21.0249C16.4306 18.5493 17.3571 15.6873 17.4996 12.7856H21.3877C21.0631 16.6914 18.3532 19.9273 14.7201 21.0249ZM2.61068 12.7856H6.5004C6.64135 15.6873 7.56785 18.5493 9.27831 21.0249C5.64675 19.9273 2.93694 16.6914 2.61068 12.7856ZM9.27831 2.97509C7.56785 5.45068 6.64135 8.31274 6.5004 11.2144H2.61068C2.93694 7.30857 5.64675 4.07271 9.27831 2.97509ZM12.7848 11.2144V3.00835C14.7249 5.39842 15.7717 8.28265 15.9317 11.2144H12.7848ZM12.7848 12.7856H15.9317C15.7717 15.7174 14.7233 18.6016 12.7848 20.9916V12.7856ZM11.2137 12.7856V20.9916C9.27514 18.6016 8.22669 15.7174 8.06832 12.7856H11.2137ZM11.2137 11.2144H8.06832C8.22669 8.28265 9.27514 5.39842 11.2137 3.00835V11.2144ZM21.3877 11.2144H17.4996C17.3571 8.31274 16.4306 5.45068 14.7185 2.97509C18.3533 4.07271 21.0631 7.30857 21.3877 11.2144ZM11.9992 1C5.92391 1 1 5.92426 1 12C1 18.0757 5.92391 23 11.9992 23C18.0745 23 23 18.0757 23 12C23 5.92426 18.0745 1 11.9992 1Z" fill="#FFFFFF"/>
</g>
</svg>
