<svg width="24" height="24" viewBox="0 0 24 24" fill="none" xmlns="http://www.w3.org/2000/svg">
<g clip-path="url(#clip0_11725_170)">
<path d="M21 0H3C1.34315 0 0 1.34315 0 3V21C0 22.6569 1.34315 24 3 24H21C22.6569 24 24 22.6569 24 21V3C24 1.34315 22.6569 0 21 0Z" fill="#00095B"/>
<path d="M17.1087 6.79562C16.2081 6.20822 15.5577 5.26862 15.3549 4.17302C15.3111 3.93602 15.2871 3.69242 15.2871 3.44342H12.4119L12.4071 14.9658C12.3585 16.2564 11.2971 17.292 9.99512 17.292C9.59072 17.292 9.20972 17.1906 8.87432 17.0142C8.10512 16.6092 7.57833 15.8028 7.57833 14.8752C7.57833 13.5426 8.66252 12.4584 9.99512 12.4584C10.2441 12.4584 10.4823 12.4992 10.7085 12.57V9.63482C10.4751 9.60302 10.2375 9.58322 9.99512 9.58322C7.07732 9.58322 4.70312 11.9574 4.70312 14.8752C4.70312 16.6656 5.59772 18.2502 6.96212 19.2078C7.82192 19.8114 8.86713 20.1666 9.99512 20.1666C12.9129 20.1666 15.2871 17.793 15.2871 14.8746V9.03182C16.4145 9.84122 17.7963 10.3182 19.2873 10.3182V7.44302C18.4845 7.44302 17.7363 7.20422 17.1093 6.79502L17.1087 6.79562Z" fill="white"/>
</g>
<defs>
<clipPath id="clip0_11725_170">
<rect width="24" height="24" fill="white"/>
</clipPath>
</defs>
</svg>
