<svg width="24" height="24" viewBox="0 0 24 24" fill="none" xmlns="http://www.w3.org/2000/svg">
<g id="Settings&#38;Information/Account/24">
<path id="PersonalProfiles" fill-rule="evenodd" clip-rule="evenodd" d="M8.79984 6.34711C8.79984 8.12834 10.2352 9.57742 11.9995 9.57742C13.7655 9.57742 15.2008 8.12834 15.2008 6.34711C15.2008 4.56424 13.7655 3.11516 11.9995 3.11516C10.2352 3.11516 8.79984 4.56424 8.79984 6.34711ZM16.8006 6.34711C16.8006 9.02384 14.6525 11.1926 11.9995 11.1926C9.34817 11.1926 7.19839 9.02384 7.19839 6.34711C7.19839 3.67037 9.34817 1.5 11.9995 1.5C14.6525 1.5 16.8006 3.67037 16.8006 6.34711ZM18.4002 18.4621V20.8848H5.59984V18.4621C5.59984 16.2347 7.39482 14.4226 9.60105 14.4226H14.4006C16.6052 14.4226 18.4002 16.2347 18.4002 18.4621ZM4 22.5H20V18.4605C20 15.3392 17.4938 12.809 14.4006 12.809H9.59944C6.50781 12.809 4 15.3392 4 18.4605V22.5Z" fill="#FFFFFF"/>
</g>
</svg>
