<svg width="19" height="5" viewBox="0 0 19 5" fill="none" xmlns="http://www.w3.org/2000/svg">
<path fill-rule="evenodd" clip-rule="evenodd" d="M4.19998 2.6C4.19998 3.62 3.41998 4.4 2.39998 4.4C1.37998 4.4 0.599976 3.62 0.599976 2.6C0.599976 1.58 1.37998 0.800003 2.39998 0.800003C3.41998 0.800003 4.19998 1.58 4.19998 2.6ZM9.59997 0.800003C8.57998 0.800003 7.79997 1.58 7.79997 2.6C7.79997 3.62 8.57998 4.4 9.59997 4.4C10.62 4.4 11.4 3.62 11.4 2.6C11.4 1.58 10.62 0.800003 9.59997 0.800003ZM15 2.6C15 1.58 15.78 0.800003 16.8 0.800003C17.82 0.800003 18.6 1.58 18.6 2.6C18.6 3.62 17.82 4.4 16.8 4.4C15.78 4.4 15 3.62 15 2.6Z" fill="#00142e"/>
</svg>
