<svg width="24" height="24" viewBox="0 0 24 24" fill="none" xmlns="http://www.w3.org/2000/svg">
<g id="Navigation/POI/GroceryStore/24">
<path id="POIGroceryStore" fill-rule="evenodd" clip-rule="evenodd" d="M8.87242 13.3957L21.4303 12.0003V7.28499L6.9257 5.75651L8.87242 13.3957ZM2.57132 2.57125C1.70329 2.57125 1 1.86799 1 1H5.71395L6.51703 4.15517L23 5.86263V12.0114C23 12.8097 22.4013 13.4797 21.6077 13.5668L8.24991 15.0446L7.28843 16.7141H19.859C20.727 16.7141 21.4303 17.4173 21.4303 18.2853H7.28685C6.08302 18.2853 5.32745 16.9833 5.92778 15.9364L7.28526 13.5716L4.49269 2.57125H2.57132ZM8.85753 19.8575C7.9895 19.8575 7.28621 20.5608 7.28621 21.4288C7.28621 22.2967 7.9895 23 8.85753 23C9.72555 23 10.4288 22.2967 10.4288 21.4288C10.4288 20.5608 9.72555 19.8575 8.85753 19.8575ZM18.2873 19.8575C17.4193 19.8575 16.716 20.5608 16.716 21.4288C16.716 22.2967 17.4193 23 18.2873 23C19.1553 23 19.8586 22.2967 19.8586 21.4288C19.8586 20.5608 19.1553 19.8575 18.2873 19.8575Z" fill="#FFFFFF"/>
</g>
</svg>
